# xmcd CD database file
#
# Track frame offsets:
#	150
#	5519
#	27856
#	43219
#	61999
#	82412
#	103136
#	122246
#
# Disc length: 1943 seconds
#
# Revision: 1
# Processed by: cddbd v1.5.2PL0 Copyright (c) Steve Scherf et al.
# Submitted via: CDex 1.70beta3
#
DISCID=6d079508
DTITLE=Register6 - 空翔ケル妖怪
DYEAR=2009
DGENRE=東方アレンジ
TTITLE0=地底の夜明け
TTITLE1=業火ノ導
TTITLE2=覚醒の楼閣
TTITLE3=紅飛沫の向こう
TTITLE4=彼の岸は花で萌ゆ
TTITLE5=ヘッヂホッグ・ヂレンマ
TTITLE6=一握ノ焔
TTITLE7=マヨヒガ音頭
EXTD=YEAR: 2009
EXTT0=
EXTT1=
EXTT2=
EXTT3=
EXTT4=
EXTT5=
EXTT6=
EXTT7=
PLAYORDER=
